<svg width="8" height="5" viewBox="0 0 8 5" fill="none" xmlns="http://www.w3.org/2000/svg">
<path d="M4.30598 0.299975L6.90598 2.89998C7.22265 3.21664 7.29348 3.57914 7.11848 3.98748C6.94348 4.39581 6.63098 4.59998 6.18098 4.59998L1.03098 4.59998C0.580982 4.59998 0.268482 4.39581 0.093482 3.98748C-0.0815182 3.57914 -0.0106845 3.21664 0.305982 2.89998L2.90598 0.299975C3.00598 0.199975 3.11432 0.124976 3.23098 0.0749755C3.34765 0.0249753 3.47265 -2.43187e-05 3.60598 -2.43187e-05C3.73932 -2.43187e-05 3.86432 0.0249753 3.98098 0.0749755C4.09765 0.124976 4.20598 0.199975 4.30598 0.299975Z" fill="#2A3647"/>
</svg>
